<svg width="24" height="24" viewBox="0 0 24 24" fill="none" xmlns="http://www.w3.org/2000/svg">
<path d="M5.57037 7.88645C5.28462 6.00244 6.61512 4.30594 8.64762 3.68344C9.0085 3.57299 9.39792 3.60438 9.73645 3.7712C10.075 3.93803 10.3371 4.22773 10.4694 4.58119L11.1211 6.3212C11.2259 6.60109 11.2447 6.9059 11.1751 7.19654C11.1055 7.48719 10.9506 7.75041 10.7304 7.95244L8.79162 9.73069C8.69601 9.81854 8.62476 9.92964 8.5848 10.0532C8.54485 10.1767 8.53755 10.3085 8.56362 10.4357L8.58087 10.5137L8.62887 10.7094C8.67162 10.8744 8.73612 11.1069 8.82687 11.3844C9.00687 11.9357 9.29412 12.6767 9.72162 13.4169C10.1491 14.1572 10.6471 14.7767 11.0341 15.2079C11.2357 15.4325 11.4464 15.6487 11.6656 15.8559L11.7256 15.9114C11.8226 15.9973 11.9402 16.0566 12.0669 16.0836C12.1936 16.1105 12.3251 16.1042 12.4486 16.0652L14.9581 15.2754C15.2432 15.1858 15.5486 15.1834 15.8351 15.2685C16.1216 15.3537 16.3762 15.5224 16.5661 15.7532L17.7534 17.1947C18.2484 17.7947 18.1899 18.6767 17.6206 19.2069C16.0651 20.6567 13.9261 20.9544 12.4381 19.7574C10.6142 18.2864 9.07663 16.4923 7.90212 14.4647C6.71791 12.4385 5.92681 10.2069 5.57037 7.88719V7.88645ZM10.1349 10.5339L11.7444 9.05794C12.1848 8.65387 12.4945 8.12743 12.6338 7.54614C12.773 6.96486 12.7354 6.35523 12.5259 5.79544L11.8734 4.05544C11.6072 3.34454 11.0799 2.76192 10.399 2.42634C9.71806 2.09077 8.93481 2.0275 8.20887 2.24944C5.68512 3.02194 3.65862 5.28469 4.08762 8.11144C4.47237 10.618 5.32656 13.0294 6.60537 15.2192C7.87217 17.4057 9.53054 19.3404 11.4976 20.9267C13.7289 22.7192 16.7094 22.1079 18.6436 20.3042C19.1971 19.7884 19.5329 19.0808 19.5827 18.3259C19.6324 17.5709 19.3923 16.8255 18.9114 16.2414L17.7241 14.7999C17.3442 14.3383 16.835 14.0006 16.2618 13.8304C15.6887 13.6601 15.0777 13.665 14.5074 13.8444L12.4246 14.4999C12.3314 14.4041 12.2401 14.3063 12.1509 14.2067C11.7228 13.7331 11.3441 13.2172 11.0206 12.6669C10.7057 12.1115 10.4481 11.5255 10.2519 10.9179C10.2103 10.7908 10.1712 10.6627 10.1349 10.5339Z" fill="white"/>
</svg>
